<?xml version="1.0" standalone="no"?>
<!DOCTYPE svg PUBLIC "-//W3C//DTD SVG 20010904//EN"
 "http://www.w3.org/TR/2001/REC-SVG-20010904/DTD/svg10.dtd">
<svg version="1.0" xmlns="http://www.w3.org/2000/svg"
 width="360.000000pt" height="360.000000pt" viewBox="0 0 360.000000 360.000000"
 preserveAspectRatio="xMidYMid meet">
<metadata>
Created by potrace 1.14, written by Peter Selinger 2001-2017
</metadata>
<g transform="translate(0.000000,360.000000) scale(0.100000,-0.100000)"
fill="#000000" stroke="none">
<path d="M867 2958 c-10 -5 -24 -7 -32 -4 -7 2 -16 -2 -19 -11 -5 -13 -9 -13
-22 -2 -14 11 -18 11 -28 -2 -6 -9 -16 -14 -22 -12 -7 2 -18 -3 -27 -11 -8 -8
-17 -12 -21 -9 -3 4 -15 -3 -26 -15 -12 -12 -27 -22 -34 -22 -7 0 -23 -14 -36
-30 -13 -17 -25 -28 -28 -25 -8 8 -42 -26 -42 -42 0 -8 -4 -11 -10 -8 -5 3
-10 -1 -10 -10 0 -9 -4 -14 -9 -11 -5 3 -12 -1 -15 -10 -3 -8 -10 -13 -15 -10
-5 4 -11 1 -13 -6 -3 -7 -26 -13 -54 -14 -27 -1 -56 -5 -65 -8 -9 -4 -20 -6
-25 -4 -5 1 -19 -3 -30 -10 -12 -6 -25 -8 -29 -4 -5 4 -5 1 -1 -5 4 -7 2 -13
-4 -13 -6 0 -8 -5 -4 -12 5 -8 2 -9 -10 -5 -13 5 -15 3 -8 -11 5 -9 7 -27 6
-39 0 -13 3 -23 8 -23 5 0 6 -6 1 -12 -10 -17 -10 -49 -1 -70 4 -9 4 -18 -1
-20 -5 -2 -12 -29 -14 -61 -3 -33 -1 -55 4 -51 5 3 12 -2 15 -10 5 -13 11 -12
37 7 18 12 33 25 35 29 9 20 50 55 58 49 5 -3 15 -18 23 -33 8 -16 21 -28 28
-28 8 0 11 -4 8 -10 -3 -5 1 -10 10 -10 9 0 14 -4 11 -9 -3 -5 11 -16 32 -25
20 -10 45 -21 55 -27 10 -5 22 -7 27 -4 5 3 15 -3 21 -14 7 -10 19 -17 26 -14
7 3 13 -2 13 -12 0 -9 4 -14 9 -11 5 3 12 -1 15 -10 4 -10 2 -13 -7 -9 -6 4
-4 0 6 -8 19 -16 24 -32 5 -21 -7 4 -8 3 -4 -4 4 -7 16 -12 26 -12 14 0 18 -5
13 -17 -4 -10 -2 -14 4 -10 6 4 22 -2 35 -13 14 -11 29 -16 34 -12 5 4 2 -1
-5 -11 -12 -15 -12 -17 1 -12 17 7 51 -22 43 -35 -3 -5 5 -7 17 -5 21 4 21 3
6 -8 -15 -12 -15 -14 0 -23 13 -9 13 -12 2 -19 -9 -6 -11 -4 -5 6 5 8 4 10 0
6 -13 -11 -15 -41 -4 -48 5 -3 7 -13 3 -22 -3 -9 -11 -14 -18 -10 -6 4 -5 -1
3 -10 8 -11 9 -17 3 -17 -6 0 -9 -7 -6 -15 4 -9 0 -15 -7 -15 -11 0 -11 -2 1
-9 8 -6 18 -7 24 -4 5 3 6 1 2 -6 -4 -6 -12 -8 -18 -5 -7 5 -9 2 -5 -8 3 -9 0
-21 -6 -27 -8 -8 -6 -11 9 -11 15 0 16 -2 5 -9 -8 -5 -16 -17 -17 -25 -1 -9 2
-14 7 -10 5 3 9 1 9 -5 0 -5 -5 -13 -10 -16 -5 -3 -10 -11 -10 -16 0 -6 5 -7
12 -3 7 5 8 3 4 -5 -14 -23 -18 -71 -5 -71 9 0 9 -3 0 -14 -9 -10 -9 -16 -1
-21 8 -5 8 -11 -1 -21 -6 -8 -9 -17 -6 -21 4 -3 -1 -12 -11 -19 -15 -12 -14
-12 8 -8 14 3 20 2 14 -3 -6 -4 -10 -20 -9 -35 1 -17 -2 -25 -9 -21 -15 10
-46 11 -40 2 2 -4 1 -9 -3 -12 -5 -2 -2 -2 6 0 11 3 10 -2 -3 -16 -18 -20 -18
-21 5 -31 20 -9 21 -10 3 -7 -25 5 -57 -10 -49 -24 4 -5 14 -9 23 -8 14 0 13
2 -3 9 -19 8 -19 9 3 9 13 1 22 -5 22 -13 0 -8 6 -17 13 -20 6 -3 1 -3 -13 1
-22 5 -23 4 -11 -11 12 -14 12 -16 -5 -10 -17 6 -17 5 -3 -7 9 -8 19 -21 22
-30 4 -12 0 -15 -18 -14 -23 3 -29 -15 -10 -32 4 -4 5 -2 0 6 -5 9 -4 12 3 8
14 -9 9 -36 -9 -48 -11 -7 -11 -9 -1 -9 7 0 11 -4 8 -9 -4 -5 -2 -11 4 -13 5
-1 7 -13 4 -25 -4 -13 -9 -21 -13 -19 -4 3 -13 -4 -20 -16 -7 -11 -8 -17 -2
-13 6 3 11 1 11 -5 0 -6 4 -9 9 -6 5 3 11 -1 14 -8 4 -10 0 -13 -14 -11 -17 4
-19 2 -8 -11 10 -12 9 -13 -7 -9 -12 4 -10 1 6 -10 14 -8 18 -14 10 -13 -8 2
-16 0 -17 -5 -6 -16 -3 -27 8 -27 5 0 7 5 4 10 -3 6 0 10 7 10 8 0 14 -9 14
-20 0 -13 -5 -19 -14 -15 -7 3 -10 0 -7 -6 4 -5 2 -16 -5 -24 -13 -16 1 -28
24 -19 9 3 16 1 16 -6 0 -6 -4 -8 -10 -5 -14 9 -13 -8 2 -23 8 -8 8 -15 -3
-28 -10 -13 -11 -16 -1 -10 9 6 12 3 10 -10 -2 -13 2 -18 12 -16 9 1 6 -5 -8
-15 -18 -15 -20 -21 -10 -31 15 -15 18 -73 4 -65 -5 4 -6 0 -1 -7 4 -7 2 -16
-6 -22 -10 -7 -8 -8 7 -4 14 4 21 2 21 -8 0 -8 -6 -12 -14 -9 -10 4 -11 0 -6
-15 8 -20 31 -30 25 -10 -1 5 3 6 9 2 9 -5 6 -12 -9 -25 -22 -17 -28 -30 -14
-28 17 3 32 -2 32 -10 0 -5 -6 -8 -12 -7 -7 0 -13 -3 -13 -9 0 -5 7 -8 14 -7
13 3 13 1 1 -13 -12 -15 -11 -19 7 -33 21 -16 27 -39 24 -91 -1 -21 -3 -22
-18 -10 -12 10 -14 10 -9 1 4 -7 1 -15 -8 -18 -9 -3 -16 -12 -16 -19 0 -7 -8
-12 -17 -11 -10 0 -17 -5 -15 -12 1 -7 -5 -15 -13 -18 -8 -3 -12 -11 -8 -17 4
-6 0 -8 -9 -5 -8 4 -15 0 -15 -8 0 -7 5 -10 11 -6 15 9 -22 -49 -43 -68 -23
-20 -56 -73 -53 -84 2 -5 -4 -6 -12 -3 -9 4 -13 0 -12 -11 2 -9 -6 -23 -16
-31 -16 -11 -17 -15 -6 -30 14 -17 15 -32 3 -68 -4 -13 -11 -20 -16 -17 -5 3
-6 -2 -3 -10 6 -14 130 -16 1194 -16 859 0 1191 3 1196 11 4 8 -1 9 -17 4 -22
-7 -23 -6 -5 7 16 13 17 16 3 30 -9 8 -12 20 -7 28 6 10 9 10 13 -1 4 -10 6
-10 6 -2 1 7 -10 20 -24 29 -21 14 -23 19 -13 32 7 9 9 13 3 10 -5 -3 -16 0
-23 8 -7 8 -10 14 -6 14 3 0 1 7 -6 15 -7 8 -17 12 -23 8 -6 -4 -8 0 -4 10 3
9 3 16 -1 14 -5 -1 -20 11 -34 26 -15 16 -29 28 -33 27 -10 -2 -54 48 -47 54
3 3 -2 6 -12 6 -9 0 -15 4 -12 8 3 5 -4 15 -15 22 -10 8 -19 19 -19 25 0 6 -9
17 -20 25 -11 8 -20 20 -20 27 0 7 -6 13 -12 13 -8 0 -9 3 -3 8 16 11 18 44 3
53 -10 7 -9 9 4 9 10 0 20 10 24 25 4 15 11 22 18 18 6 -4 5 1 -3 10 -12 15
-11 17 4 17 10 0 15 3 12 7 -4 3 -1 13 6 21 6 9 7 13 1 9 -6 -3 -11 0 -11 8 0
8 5 11 10 8 6 -4 8 0 4 10 -3 10 -2 17 4 17 6 0 7 5 4 10 -3 6 -1 10 4 10 6 0
11 4 11 9 0 6 -9 8 -19 6 -14 -3 -18 1 -14 11 3 8 12 13 20 10 8 -3 12 -2 8 3
-3 5 1 12 7 15 7 4 2 4 -12 2 l-25 -5 24 20 c21 17 20 24 -3 20 -5 -1 -3 6 5
15 11 13 11 18 2 21 -18 6 -16 42 2 49 13 5 13 9 3 22 -7 9 -8 13 -3 10 6 -3
18 5 28 18 15 21 16 25 3 30 -12 5 -12 10 -1 38 8 19 11 37 7 41 -7 6 -8 10
-11 36 0 5 -7 7 -13 3 -10 -5 -10 -4 -1 6 6 7 9 19 6 28 -5 11 -2 13 6 7 10
-6 11 -3 2 12 -7 15 -6 25 5 42 14 19 14 22 -1 27 -14 6 -14 8 1 19 14 9 14
14 4 20 -9 6 -11 4 -5 -5 5 -9 4 -11 -3 -6 -17 10 -15 15 11 26 13 5 16 9 7 9
-9 1 -16 10 -17 21 -1 11 2 18 8 15 5 -4 9 -1 9 4 0 6 -4 11 -10 11 -5 0 -10
7 -10 16 0 9 5 12 13 8 6 -4 3 3 -8 16 -11 13 -15 20 -8 17 6 -4 14 -3 18 3 3
5 0 10 -7 10 -10 1 -9 4 2 13 9 7 14 26 13 47 -1 19 1 42 4 50 3 8 8 33 9 54
2 22 9 43 16 48 10 6 10 8 -1 8 -10 0 -11 3 -2 14 9 11 9 16 0 21 -8 6 -7 10
2 16 8 5 10 9 4 9 -5 0 -10 14 -10 30 0 17 4 30 9 30 5 0 4 6 -2 13 -12 14
-11 35 2 56 6 10 5 12 -2 7 -15 -9 -15 -1 0 27 10 19 9 20 -4 10 -12 -11 -14
-8 -10 17 4 27 12 35 35 31 4 0 7 3 7 9 0 5 7 10 15 10 7 0 19 8 24 18 6 9 11
13 11 8 0 -5 7 -3 15 4 8 7 12 16 9 21 -3 5 0 9 5 9 6 0 10 6 9 13 -2 7 5 11
16 9 11 -2 15 1 11 7 -7 12 1 14 67 12 26 -1 50 3 53 9 3 5 15 10 26 10 10 0
27 9 36 19 9 11 20 18 25 15 4 -3 8 1 8 9 0 8 7 17 15 21 9 3 12 12 8 23 -9
26 2 13 26 -30 12 -21 16 -35 10 -32 -6 4 -4 -4 5 -17 9 -14 13 -28 9 -31 -3
-4 -1 -7 6 -7 7 0 11 -6 8 -14 -3 -7 0 -19 6 -25 6 -6 8 -11 4 -11 -4 0 -3 -9
3 -20 8 -15 8 -20 -1 -20 -8 0 -8 -4 1 -15 7 -9 14 -26 15 -38 1 -12 5 -29 8
-37 5 -14 11 -41 24 -102 3 -16 12 -28 20 -28 8 0 12 -4 8 -9 -3 -5 6 -19 21
-30 21 -16 29 -18 44 -9 10 7 17 15 14 19 -2 4 1 11 7 14 5 4 8 13 5 21 -3 7
-2 15 2 18 4 2 6 42 6 88 -1 45 3 89 9 96 6 8 6 12 -2 12 -9 0 -9 5 -1 20 6
11 8 20 4 20 -3 0 -1 6 5 13 6 8 8 17 4 21 -4 4 -1 11 7 16 12 8 12 10 1 10
-9 0 -10 4 -3 13 8 10 8 28 0 110 -1 9 -8 17 -16 17 -7 0 -11 4 -8 9 3 5 -4
11 -15 14 -12 3 -18 10 -14 17 3 6 3 10 -2 9 -16 -4 -43 13 -36 24 4 6 0 8 -9
4 -10 -3 -28 6 -46 25 -17 16 -36 27 -42 23 -5 -3 -7 0 -4 8 3 8 -3 21 -13 28
-10 8 -18 21 -18 29 0 8 -5 14 -12 13 -12 -3 -12 15 1 36 6 9 5 12 -1 8 -6 -4
-17 1 -24 10 -12 14 -12 16 1 9 8 -4 4 2 -10 13 -15 13 -20 21 -11 21 9 0 6 7
-8 19 -14 12 -20 25 -15 32 4 7 3 9 -4 5 -6 -3 -13 2 -17 11 -8 26 -46 66 -77
82 -15 8 -25 17 -23 21 5 8 -24 24 -37 22 -5 -1 -8 3 -8 9 0 5 -5 7 -10 4 -5
-3 -10 -1 -10 4 0 6 -9 11 -20 11 -11 0 -20 5 -20 11 0 5 -4 7 -10 4 -6 -3
-10 2 -11 12 0 10 -3 13 -6 6 -6 -16 -33 -17 -33 -2 0 5 -4 8 -9 5 -4 -3 -16
1 -27 8 -12 10 -26 11 -41 5 -16 -6 -23 -5 -23 4 0 8 -4 7 -10 -3 -9 -13 -10
-13 -10 0 0 13 -1 13 -10 0 -9 -13 -10 -13 -10 0 0 13 -1 13 -10 0 -9 -14 -14
-7 -11 13 1 5 -6 4 -16 -1 -9 -6 -26 -6 -37 -2 -12 4 -25 8 -31 8 -5 0 -11 6
-13 14 -2 9 0 8 7 -2 8 -11 11 -11 11 -2 0 7 -7 15 -15 18 -8 4 -12 10 -9 15
3 5 0 9 -5 9 -6 0 -11 -8 -12 -17 0 -15 -2 -15 -9 2 -5 11 -9 16 -9 11 -1 -5
-9 -2 -18 5 -10 8 -14 9 -10 2 4 -6 3 -14 -3 -18 -5 -3 -10 -1 -10 4 0 6 -11
11 -24 11 -14 0 -28 5 -31 10 -5 8 -11 8 -19 1 -7 -6 -15 -8 -18 -5 -3 2 -18
7 -34 10 -16 3 -38 13 -48 22 -11 9 -16 11 -12 5 5 -9 2 -11 -8 -7 -9 3 -13
11 -9 18 4 6 1 6 -9 -2 -13 -10 -17 -10 -22 4 -4 9 -13 14 -21 10 -8 -3 -15
-1 -15 3 0 5 -7 12 -16 15 -9 4 -13 2 -8 -5 4 -8 0 -8 -12 -2 -11 4 -30 8 -44
8 -14 -1 -28 4 -32 10 -5 6 -8 1 -8 -10 -1 -18 -1 -19 -11 -2 -8 13 -14 15
-29 7 -12 -6 -21 -7 -25 0 -6 10 -63 8 -82 -3 -6 -4 -14 -3 -18 3 -3 5 -11 10
-16 10 -6 0 -7 -6 -3 -12 5 -9 2 -8 -9 1 -10 8 -20 11 -24 8 -3 -4 -13 -1 -21
6 -13 9 -14 9 -8 0 5 -9 2 -11 -8 -7 -9 3 -14 9 -11 13 2 4 -2 8 -10 8 -8 0
-11 -5 -8 -11 4 -6 -2 -3 -13 6 -14 12 -24 14 -37 7 -13 -8 -17 -6 -17 8 0 14
-2 15 -9 4 -7 -10 -13 -11 -31 -1 -12 7 -20 8 -17 3 4 -5 0 -10 -8 -10 -8 0
-11 5 -8 10 4 6 0 8 -9 4 -9 -3 -19 -3 -22 1 -11 10 -76 8 -76 -3 0 -5 -5 -3
-10 5 -8 12 -10 12 -10 1 0 -10 -3 -11 -13 -3 -10 9 -19 7 -36 -5 -14 -9 -26
-12 -30 -6 -7 11 -52 12 -45 1 2 -4 -5 -6 -16 -5 -11 1 -20 5 -20 10 0 5 -6 4
-14 -2 -10 -9 -16 -9 -21 -1 -5 8 -11 8 -19 1 -7 -6 -16 -8 -19 -4 -4 3 -41 7
-82 9 -56 2 -74 0 -68 -9 4 -8 1 -7 -9 1 -9 7 -22 12 -30 11 -32 -4 -49 1 -42
14 5 8 3 8 -9 -2 -14 -11 -18 -11 -23 2 -3 9 -12 13 -21 10 -11 -4 -14 -2 -9
5 5 8 -5 10 -29 8 -24 -2 -39 3 -45 13 -7 12 -9 13 -10 2 0 -11 -3 -11 -15 -1
-12 10 -15 10 -15 0 0 -9 -4 -9 -13 -2 -8 7 -18 7 -30 0z m2208 -438 c3 -6 -1
-7 -9 -4 -18 7 -21 14 -7 14 6 0 13 -4 16 -10z m-2797 -92 c-11 -8 -11 -10 0
-15 10 -4 9 -9 -5 -19 -17 -13 -17 -14 1 -7 19 6 19 6 0 -14 -16 -17 -21 -18
-33 -7 -11 10 -12 16 -3 27 7 8 8 18 4 22 -4 5 -1 5 6 1 11 -6 17 5 13 26 0 4
6 5 15 1 13 -5 13 -8 2 -15z m2582 -492 c0 -3 -4 -8 -10 -11 -5 -3 -10 -1 -10
4 0 6 5 11 10 11 6 0 10 -2 10 -4z m-2040 -530 c0 -2 -8 -10 -17 -17 -16 -13
-17 -12 -4 4 13 16 21 21 21 13z m1893 -401 c-3 -9 -8 -14 -10 -11 -3 3 -2 9
2 15 9 16 15 13 8 -4z m-1964 -8 c-2 -1 -13 -9 -24 -17 -19 -14 -19 -14 -6 3
7 9 18 17 24 17 6 0 8 -1 6 -3z m16 -167 c3 -6 -1 -7 -9 -4 -18 7 -21 14 -7
14 6 0 13 -4 16 -10z"/>
<path d="M250 2395 c-7 -9 -11 -17 -9 -20 3 -2 10 5 17 15 14 24 10 26 -8 5z"/>
<path d="M1190 2920 c0 -5 5 -10 10 -10 6 0 10 5 10 10 0 6 -4 10 -10 10 -5 0
-10 -4 -10 -10z"/>
<path d="M755 1520 c-3 -5 -1 -10 4 -10 6 0 11 5 11 10 0 6 -2 10 -4 10 -3 0
-8 -4 -11 -10z"/>
<path d="M730 800 c0 -5 5 -10 11 -10 5 0 7 5 4 10 -3 6 -8 10 -11 10 -2 0 -4
-4 -4 -10z"/>
</g>
</svg>
